HIERARCHY
ROOT Hips
{
  OFFSET 5.72205e-005 65.662 3.42586
  CHANNELS 6 Xposition Yposition Zposition Zrotation Xrotation Yrotation
  JOINT Chest
  {
    OFFSET 0 8.7983 -4.7612
    CHANNELS 3 Zrotation Xrotation Yrotation
    JOINT Chest2
    {
      OFFSET 0 8.0291 0.4195
      CHANNELS 3 Zrotation Xrotation Yrotation
      JOINT Chest3
      {
        OFFSET 0 9.9351 -2.2114
        CHANNELS 3 Zrotation Xrotation Yrotation
        JOINT Neck
        {
          OFFSET 0 22.3885 -0.4656
          CHANNELS 3 Zrotation Xrotation Yrotation
          JOINT Head
          {
            OFFSET -0.0001 12.643 3.4389
            CHANNELS 3 Zrotation Xrotation Yrotation
            End Site
            {
              OFFSET 0.0001 17.6655 0.5274
            }
          }
        }
        JOINT LeftCollar
        {
          OFFSET 2.2603 21.606 7.4023
          CHANNELS 3 Zrotation Xrotation Yrotation
          JOINT LeftShoulder
          {
            OFFSET 13.5163 -1.1332 -5.0146
            CHANNELS 3 Zrotation Xrotation Yrotation
            JOINT LeftElbow
            {
              OFFSET -0.0995 -28.05 -0.2431
              CHANNELS 3 Zrotation Xrotation Yrotation
              JOINT LeftWrist
              {
                OFFSET 0.0679 -23.3996 -0.1402
                CHANNELS 3 Zrotation Xrotation Yrotation
                JOINT LeftFinger1
                {
                  OFFSET 0.7932 -9.069 2.5189
                  CHANNELS 3 Zrotation Xrotation Yrotation
                  JOINT LeftFinger11
                  {
                    OFFSET -0.8272 -3.3923 0.5977
                    CHANNELS 3 Zrotation Xrotation Yrotation
                    JOINT LeftFinger12
                    {
                      OFFSET -0.5649 -2.3158 0.4082
                      CHANNELS 3 Zrotation Xrotation Yrotation
                      End Site
                      {
                        OFFSET -0.4919 -1.6479 0.2673
                      }
                    }
                  }
                }
                JOINT LeftFinger2
                {
                  OFFSET 0.9159 -9.2044 0.2193
                  CHANNELS 3 Zrotation Xrotation Yrotation
                  JOINT LeftFinger21
                  {
                    OFFSET 0.0117 -4.1944 -0.0248
                    CHANNELS 3 Zrotation Xrotation Yrotation
                    JOINT LeftFinger22
                    {
                      OFFSET 0.0071 -2.3249 -0.0142
                      CHANNELS 3 Zrotation Xrotation Yrotation
                      End Site
                      {
                        OFFSET -0.1475 -2.0882 0.0028
                      }
                    }
                  }
                }
                JOINT LeftFinger3
                {
                  OFFSET 0.6113 -8.7231 -2.0637
                  CHANNELS 3 Zrotation Xrotation Yrotation
                  JOINT LeftFinger31
                  {
                    OFFSET -0.1927 -3.8059 -0.2383
                    CHANNELS 3 Zrotation Xrotation Yrotation
                    JOINT LeftFinger32
                    {
                      OFFSET -0.1091 -2.1688 -0.1362
                      CHANNELS 3 Zrotation Xrotation Yrotation
                      End Site
                      {
                        OFFSET -0.2358 -1.9176 -0.0906
                      }
                    }
                  }
                }
                JOINT LeftFinger4
                {
                  OFFSET -0.6151 -8.0947 -3.5641
                  CHANNELS 3 Zrotation Xrotation Yrotation
                  JOINT LeftFinger41
                  {
                    OFFSET -0.4882 -2.341 -0.6462
                    CHANNELS 3 Zrotation Xrotation Yrotation
                    JOINT LeftFinger42
                    {
                      OFFSET -0.3575 -1.7167 -0.4742
                      CHANNELS 3 Zrotation Xrotation Yrotation
                      End Site
                      {
                        OFFSET -0.4187 -1.5237 -0.3496
                      }
                    }
                  }
                }
                JOINT LeftFinger0
                {
                  OFFSET -1.42 -1.8761 1.4223
                  CHANNELS 3 Zrotation Xrotation Yrotation
                  JOINT LeftFinger01
                  {
                    OFFSET -1.1471 -3.4929 2.6334
                    CHANNELS 3 Zrotation Xrotation Yrotation
                    JOINT LeftFinger02
                    {
                      OFFSET -0.823 -2.3 1.6571
                      CHANNELS 3 Zrotation Xrotation Yrotation
                      End Site
                      {
                        OFFSET -0.5822 -1.6914 1.1582
                      }
                    }
                  }
                }
              }
            }
          }
        }
        JOINT RightCollar
        {
          OFFSET -2.2603 21.606 7.4023
          CHANNELS 3 Zrotation Xrotation Yrotation
          JOINT RightShoulder
          {
            OFFSET -13.5187 -1.1334 -5.0155
            CHANNELS 3 Zrotation Xrotation Yrotation
            JOINT RightElbow
            {
              OFFSET 0.0994 -28.0499 -0.2431
              CHANNELS 3 Zrotation Xrotation Yrotation
              JOINT RightWrist
              {
                OFFSET -0.0679 -23.3996 -0.1402
                CHANNELS 3 Zrotation Xrotation Yrotation
                JOINT RightFinger1
                {
                  OFFSET -0.7932 -9.0691 2.5189
                  CHANNELS 3 Zrotation Xrotation Yrotation
                  JOINT RightFinger11
                  {
                    OFFSET 0.8272 -3.3923 0.5977
                    CHANNELS 3 Zrotation Xrotation Yrotation
                    JOINT RightFinger12
                    {
                      OFFSET 0.565 -2.3158 0.4082
                      CHANNELS 3 Zrotation Xrotation Yrotation
                      End Site
                      {
                        OFFSET 0.4919 -1.6479 0.2673
                      }
                    }
                  }
                }
                JOINT RightFinger2
                {
                  OFFSET -0.916 -9.2044 0.2193
                  CHANNELS 3 Zrotation Xrotation Yrotation
                  JOINT RightFinger21
                  {
                    OFFSET -0.0117 -4.1944 -0.0248
                    CHANNELS 3 Zrotation Xrotation Yrotation
                    JOINT RightFinger22
                    {
                      OFFSET -0.0071 -2.3249 -0.0142
                      CHANNELS 3 Zrotation Xrotation Yrotation
                      End Site
                      {
                        OFFSET 0.1475 -2.0882 0.0028
                      }
                    }
                  }
                }
                JOINT RightFinger3
                {
                  OFFSET -0.6113 -8.7231 -2.0637
                  CHANNELS 3 Zrotation Xrotation Yrotation
                  JOINT RightFinger31
                  {
                    OFFSET 0.1927 -3.8059 -0.2383
                    CHANNELS 3 Zrotation Xrotation Yrotation
                    JOINT RightFinger32
                    {
                      OFFSET 0.1091 -2.1688 -0.1362
                      CHANNELS 3 Zrotation Xrotation Yrotation
                      End Site
                      {
                        OFFSET 0.2358 -1.9176 -0.0906
                      }
                    }
                  }
                }
                JOINT RightFinger4
                {
                  OFFSET 0.6151 -8.0947 -3.564
                  CHANNELS 3 Zrotation Xrotation Yrotation
                  JOINT RightFinger41
                  {
                    OFFSET 0.4882 -2.341 -0.6462
                    CHANNELS 3 Zrotation Xrotation Yrotation
                    JOINT RightFinger42
                    {
                      OFFSET 0.3574 -1.7166 -0.4742
                      CHANNELS 3 Zrotation Xrotation Yrotation
                      End Site
                      {
                        OFFSET 0.4187 -1.5237 -0.3496
                      }
                    }
                  }
                }
                JOINT RightFinger0
                {
                  OFFSET 1.4199 -1.8761 1.4221
                  CHANNELS 3 Zrotation Xrotation Yrotation
                  JOINT RightFinger01
                  {
                    OFFSET 1.1472 -3.4929 2.6336
                    CHANNELS 3 Zrotation Xrotation Yrotation
                    JOINT RightFinger02
                    {
                      OFFSET 0.8229 -2.3 1.6571
                      CHANNELS 3 Zrotation Xrotation Yrotation
                      End Site
                      {
                        OFFSET 0.5822 -1.6914 1.1582
                      }
                    }
                  }
                }
              }
            }
          }
        }
      }
    }
  }
  JOINT RightHip
  {
    OFFSET -9.412 3.9771 -0.7758
    CHANNELS 3 Zrotation Xrotation Yrotation
    JOINT RightKnee
    {
      OFFSET -0.7531 -40.938 0
      CHANNELS 3 Zrotation Xrotation Yrotation
      JOINT RightAnkle
      {
        OFFSET 0 -40.1986 0
        CHANNELS 3 Zrotation Xrotation Yrotation
        JOINT RightToe
        {
          OFFSET 0 -4.4182 9.239
          CHANNELS 3 Zrotation Xrotation Yrotation
          End Site
          {
            OFFSET 0 0 6.1981
          }
        }
      }
    }
  }
  JOINT LeftHip
  {
    OFFSET 9.4119 3.9773 -0.7758
    CHANNELS 3 Zrotation Xrotation Yrotation
    JOINT LeftKnee
    {
      OFFSET 0.7532 -40.9383 0
      CHANNELS 3 Zrotation Xrotation Yrotation
      JOINT LeftAnkle
      {
        OFFSET 0 -40.1986 0
        CHANNELS 3 Zrotation Xrotation Yrotation
        JOINT LeftToe
        {
          OFFSET 0 -4.4182 9.239
          CHANNELS 3 Zrotation Xrotation Yrotation
          End Site
          {
            OFFSET 0 0 6.1981
          }
        }
      }
    }
  }
}
MOTION
Frames:	5
Frame Time:	0.0333333
5.72205e-005 65.662 3.42586 0 0 -0 0 0 -0 0 0 -0 0 0 -0 0 0 -0 0 0 -0 0 0 -12.5014 88.1196 14.2451 10.6914 -0.00160068 -0.00239207 0.000740045 -8.4365e-005 7.00714e-005 -9.52055e-007 9.93923e-017 -1.98785e-016 -1.59028e-015 9.93923e-017 -5.96354e-016 -1.59028e-015 -9.93923e-017 -5.96354e-016 -1.59028e-015 9.93923e-017 -1.98785e-016 -1.59028e-015 -0.0128176 0.00232552 8.52707e-005 9.93923e-017 5.96354e-016 -0 9.93923e-017 -1.98785e-016 -1.59028e-015 -0.0160551 0.00299681 0.000857156 -2.48481e-016 0 3.18055e-015 9.93923e-017 -1.98785e-016 -1.59028e-015 -0.0125865 0.0031206 0.00282719 0 1.98785e-016 -0 9.93923e-017 -1.98785e-016 -1.59028e-015 9.93923e-017 -5.96354e-016 -1.59028e-015 -9.93923e-017 -5.96354e-016 -1.59028e-015 -0.865644 0.16582 7.03859 -88.0329 10.2057 -10.5567 0.0015593 -0.00248883 -0.000788628 7.87605e-005 4.10553e-005 1.24965e-005 -3.97569e-016 -7.95139e-016 3.18055e-015 -1.98785e-016 -3.97569e-016 3.18055e-015 -1.98785e-016 0 3.18055e-015 -3.97569e-016 -7.95139e-016 3.18055e-015 0.0129473 0.00231697 -8.70038e-005 9.93923e-017 -7.95139e-016 1.59028e-015 -3.97569e-016 -7.95139e-016 3.18055e-015 0.0163314 0.00303369 -0.000872333 3.97569e-016 7.95139e-016 -3.18055e-015 -3.97569e-016 -7.95139e-016 3.18055e-015 0.0145763 0.00367772 -0.00326275 9.93923e-017 -3.97569e-016 -0 -3.97569e-016 -7.95139e-016 3.18055e-015 -1.98785e-016 -3.97569e-016 3.18055e-015 -1.98785e-016 0 3.18055e-015 3.42482 1.32465 -0.0626183 0.000117508 0.717283 0.000978199 -3.4257 -2.04197 -0.0604716 6.47761e-025 0 -0 -3.42483 1.34017 0.0627307 -0.000193936 0.682302 -0.0013703 3.42574 -2.02253 0.0595886 -8.45714e-024 0 -7.40531e-025 
-42.5773 55.669 9.84431 3.50019 -11.0067 100.685 1.09467 4.33216 -2.68764 2.40275 8.60711 -5.48137 2.40275 8.60714 -5.48139 -0.0537134 10.302 8.1773 6.5095 1.13634 40.8687 7.61818 11.85 -2.2702 111.678 -11.7772 20.4098 5.05208 -56.3963 -1.27552 -19.7151 -47.5915 49.1149 -7.95139e-015 -6.36111e-015 3.18055e-015 -4.77083e-015 -6.36111e-015 9.54166e-015 -3.18055e-015 -6.36111e-015 6.36111e-015 -7.95139e-015 -6.36111e-015 3.18055e-015 -0.0127911 0.00231023 8.2179e-005 1.11319e-014 6.36111e-015 6.36111e-015 -7.95139e-015 -6.36111e-015 3.18055e-015 -0.0160216 0.00299344 0.000855637 -1.11319e-014 2.22639e-014 9.54166e-015 -7.95139e-015 -6.36111e-015 3.18055e-015 -0.0125639 0.00311434 0.00281555 4.77083e-015 1.27222e-014 -3.18055e-015 -7.95139e-015 -6.36111e-015 3.18055e-015 -4.77083e-015 -6.36111e-015 9.54166e-015 -3.18055e-015 -6.36111e-015 6.36111e-015 -46.131 12.6858 40.8498 -46.1488 -61.4853 11.9502 -90.1403 -44.6338 -53.0712 -41.468 -24.8767 -2.34228 -4.87227e-006 -1.05217e-006 3.04834e-007 -6.36111e-015 -6.36111e-015 -1.59028e-015 3.35115e-023 6.0369e-007 -3.18055e-015 -4.87227e-006 -1.05217e-006 3.04834e-007 0.0128661 0.00228995 -7.83205e-005 -3.18055e-015 1.59028e-015 -1.59028e-015 -4.87227e-006 -1.05217e-006 3.04834e-007 0.0163559 0.00304031 -0.000879343 6.36111e-015 -4.77083e-015 -0 -4.87227e-006 -1.05217e-006 3.04834e-007 0.0145084 0.00365218 -0.00324268 -3.99221e-007 -8.314e-006 3.33466e-006 -4.87227e-006 -1.05217e-006 3.04834e-007 -6.36111e-015 -6.36111e-015 -1.59028e-015 3.35115e-023 6.0369e-007 -3.18055e-015 -18.6342 -64.0209 -31.2687 -13.3411 78.2756 20.1965 -24.0885 0.883876 -10.5973 -1.49843e-006 3.20565e-006 -1.7193e-007 -80.5619 -49.8972 -71.6569 -80.8302 59.7826 78.5075 -2.7853 -4.43929 7.67082 6.36111e-015 3.18055e-015 -3.18055e-015 
-42.5773 55.669 9.84431 3.50019 -11.0067 100.685 1.09467 4.33216 -2.68764 2.40275 8.60711 -5.48137 2.40275 8.60714 -5.48139 -0.0537134 10.302 8.1773 6.50178 1.15092 40.9672 7.61818 11.85 -2.2702 111.678 -11.7772 20.4098 5.05211 -56.3963 -1.27549 -19.7151 -47.5915 49.1149 -4.77083e-015 0 6.36111e-015 -3.18055e-015 -3.18055e-015 6.36111e-015 -4.77083e-015 0 3.18055e-015 -4.77083e-015 0 6.36111e-015 -0.0127833 0.00231258 8.2361e-005 -4.39858e-006 9.96278e-006 -2.48365e-006 -4.77083e-015 0 6.36111e-015 -0.0160102 0.00298752 0.000856075 4.71983e-006 -4.41039e-006 4.07576e-006 -4.77083e-015 0 6.36111e-015 -0.0125761 0.00312292 0.00282088 3.18055e-015 3.18055e-015 -9.54166e-015 -4.77083e-015 0 6.36111e-015 -3.18055e-015 -3.18055e-015 6.36111e-015 -4.77083e-015 0 3.18055e-015 -46.131 12.6858 40.8498 -45.6393 -61.1952 11.9746 -89.1038 -45.5597 -52.4636 -41.468 -24.8768 -2.34215 1.09147e-005 1.45568e-005 -7.05218e-006 6.36111e-015 0 3.18055e-015 6.36111e-015 -1.59028e-015 1.59028e-015 1.09147e-005 1.45568e-005 -7.05218e-006 0.0130168 0.00231718 -6.80155e-005 -3.18055e-015 -1.59028e-015 -1.59028e-015 1.09147e-005 1.45568e-005 -7.05218e-006 0.0162767 0.00301799 -0.000867681 3.18055e-015 -7.95139e-015 1.27222e-014 1.09147e-005 1.45568e-005 -7.05218e-006 0.0146119 0.00368086 -0.00326944 -6.36111e-015 0 1.59028e-015 1.09147e-005 1.45568e-005 -7.05218e-006 6.36111e-015 0 3.18055e-015 6.36111e-015 -1.59028e-015 1.59028e-015 -18.6342 -64.021 -31.2686 -13.3412 78.2757 20.1965 -24.0884 0.883859 -10.5973 5.72242e-008 -2.50986e-007 -4.22719e-007 -80.5619 -49.8972 -71.6569 -80.8302 59.7826 78.5075 -2.7853 -4.43929 7.67082 6.36111e-015 3.18055e-015 -3.18055e-015 
-42.5773 55.669 9.84431 3.50018 -11.0067 100.685 1.09468 4.33217 -2.68765 2.40274 8.60711 -5.48136 2.40276 8.60714 -5.4814 -0.0537123 10.302 8.17729 6.49402 1.16548 41.0658 7.61818 11.8499 -2.27019 111.678 -11.7772 20.4098 5.05207 -56.3963 -1.2755 -19.7151 -47.5915 49.1149 4.77083e-015 6.36111e-015 -0 -7.95139e-015 -3.18055e-015 6.36111e-015 3.18055e-015 3.18055e-015 -0 4.77083e-015 6.36111e-015 -0 -0.0128088 0.0023276 8.69719e-005 -1.74931e-014 1.27222e-014 -0 4.77083e-015 6.36111e-015 -0 -0.0160535 0.00301024 0.000853965 -9.54166e-015 6.36111e-015 -1.27222e-014 4.77083e-015 6.36111e-015 -0 -0.0125659 0.00311857 0.0028255 -7.95139e-015 -1.59028e-014 3.18055e-015 4.77083e-015 6.36111e-015 -0 -7.95139e-015 -3.18055e-015 6.36111e-015 3.18055e-015 3.18055e-015 -0 -46.131 12.6858 40.8498 -45.1341 -60.9048 11.9936 -88.0314 -46.4809 -51.8186 -41.4681 -24.8766 -2.34228 6.36111e-015 1.59028e-015 -1.59028e-015 3.18055e-015 1.59028e-015 -1.59028e-015 -3.18055e-015 3.18055e-015 -1.59028e-015 6.36111e-015 1.59028e-015 -1.59028e-015 0.0130183 0.00233578 -7.67462e-005 -1.27222e-014 -3.18055e-015 -1.59028e-015 6.36111e-015 1.59028e-015 -1.59028e-015 0.0163013 0.00303764 -0.00086408 -4.86052e-006 -1.0452e-005 -1.50495e-006 6.36111e-015 1.59028e-015 -1.59028e-015 0.0144931 0.00366005 -0.00325358 -8.82781e-032 3.18055e-015 1.59028e-015 6.36111e-015 1.59028e-015 -1.59028e-015 3.18055e-015 1.59028e-015 -1.59028e-015 -3.18055e-015 3.18055e-015 -1.59028e-015 -18.634 -64.021 -31.2685 -13.3413 78.2757 20.1965 -24.0884 0.883863 -10.5974 -2.03609e-006 -6.96426e-006 1.36351e-005 -80.5621 -49.8971 -71.6571 -80.8304 59.7827 78.5078 -2.78525 -4.43931 7.67078 1.76556e-031 3.18055e-015 -3.18055e-015 
-42.5773 55.669 9.84431 3.50018 -11.0067 100.685 1.09467 4.33214 -2.68763 2.40274 8.6071 -5.48135 2.40274 8.6071 -5.48138 -0.0536856 10.302 8.17725 6.48626 1.18004 41.1644 7.61822 11.85 -2.27027 111.678 -11.7772 20.4098 5.05209 -56.3963 -1.2755 -19.7151 -47.5915 49.1149 -1.11319e-014 -3.18055e-015 -0 -3.18055e-015 3.18055e-015 3.18055e-015 6.36111e-015 0 -3.18055e-015 -1.11319e-014 -3.18055e-015 -0 -0.0128036 0.00231612 8.59185e-005 3.18055e-015 6.36111e-015 -0 -1.11319e-014 -3.18055e-015 -0 -0.0160463 0.0029953 0.000862471 3.18055e-015 -3.18055e-015 -0 -1.11319e-014 -3.18055e-015 -0 -0.0125773 0.0031224 0.00282506 -1.59028e-015 -9.54166e-015 3.18055e-015 -1.11319e-014 -3.18055e-015 -0 -3.18055e-015 3.18055e-015 3.18055e-015 6.36111e-015 0 -3.18055e-015 -46.131 12.6859 40.8498 -44.633 -60.614 12.0072 -86.9215 -47.3965 -51.1348 -41.4681 -24.8766 -2.34233 3.18055e-015 -1.59028e-015 -0 -6.36111e-015 -1.59028e-015 -1.59028e-015 -3.18055e-015 0 -1.59028e-015 3.18055e-015 -1.59028e-015 -0 0.0129647 0.00231659 -8.5065e-005 9.54166e-015 -1.59028e-015 3.18055e-015 3.18055e-015 -1.59028e-015 -0 0.016336 0.00303259 -0.000877512 1.90833e-014 -9.54166e-015 6.36111e-015 3.18055e-015 -1.59028e-015 -0 0.0146142 0.00368547 -0.00327581 6.36111e-015 1.59028e-015 -1.59028e-015 3.18055e-015 -1.59028e-015 -0 -6.36111e-015 -1.59028e-015 -1.59028e-015 -3.18055e-015 0 -1.59028e-015 -18.6341 -64.0208 -31.2685 -13.3411 78.2756 20.1964 -24.0884 0.883875 -10.5974 -5.72243e-008 2.81738e-006 4.22719e-007 -80.5622 -49.8971 -71.6571 -80.8305 59.7827 78.5079 -2.78526 -4.43934 7.67076 -3.18055e-015 9.54166e-015 -3.18055e-015 
